<?xml version="1.0" encoding="UTF-8"?>
<svg xmlns="http://www.w3.org/2000/svg" viewBox="0 0 502 219">
  <g transform="translate(-539.1851279136043,-205.161677902213)">
    <path d="M548.31,279.86c-0.51,29.5 0.39,59.06 1.08,88.55c0.26,11.28 0.61,22.55 1.08,33.82c0.19,4.54 1.57,12.73 -5.48,12.73c-7.49,0 -8.35,-12.83 -1.91,-15.2c11.46,-4.21 9.94,20.27 -0.83,14.52c-3.7,-1.98 -3.02,-5.93 -2.85,-9.49c0.33,-7.13 0.56,-14.26 0.78,-21.4c1.07,-34.46 2.09,-69.06 1.49,-103.53c-0.36,-20.75 -1.97,-41.51 -1.43,-62.27c0.08,-3.12 -1.05,-8.01 1.21,-10.76c2.76,-3.36 7.26,49.53 6.85,73.03z" fill="rgba(11, 4, 177, 1)"/>
    <path d="M597.32,318.76c5.82,-0.96 11.63,-1.9 17.44,-2.95c0.1,-0.02 6.1,-1.23 6.12,-1.18c0.51,0.97 -1.46,1.68 -1.89,2.7c-0.33,0.79 0.52,2.77 -0.3,2.54c-0.47,-0.13 -1.19,-4.89 -1.25,-5.35c-0.95,-7.02 -1.1,-14.16 -1.46,-21.23c-0.69,-13.62 0.76,-30.67 -4.19,-43.63c-1.61,-4.21 -3.07,-8.22 -4.21,-12.61c-0.2,-0.79 -1.42,-2.26 -0.62,-2.35c0.89,-0.11 0.61,1.93 1.45,2.25c1.93,0.74 4.1,0.67 6.17,0.66c1.06,-0.01 2.21,-0.15 3.11,-0.72c0.76,-0.47 0.66,-2.37 1.54,-2.2c0.62,0.12 0.66,7.69 0.69,8.42c0.5,10.29 0.76,20.59 0.91,30.89c0.46,33.07 -0.5,67.1 5.3,99.77c1.11,6.22 2.86,12.54 3.5,18.79c0.46,4.52 1.5,10.24 -4.13,11.9c-7.44,2.18 -8.3,-6 -8.82,-10.97c-0.88,-8.5 -2.73,-16.89 -3.46,-25.42c-1.22,-14.28 -0.26,-28.9 -0.79,-43.24c-0.86,-23.07 -3.23,-46.02 -5.27,-69.01c-0.22,-2.44 -0.41,-4.84 -0.59,-7.29c-0.52,-7.23 -3.68,-28.71 11.21,-21.22c3.27,1.65 3.71,10.88 4.79,13.95c6.94,19.58 4.82,41.3 6.37,61.76c0.4,5.34 4.32,17.63 -0.87,21.51c-5.45,4.08 -16.73,3.22 -23.36,4.1c-13.36,1.78 -26.7,4 -40.13,5.17c-6.42,0.56 -14.36,1.68 -20.77,0.41c-6.18,-1.23 35.82,-12.55 53.5,-15.45z" fill="rgba(11, 4, 177, 1)"/>
    <path d="M668.99,364.7c0.62,5.89 1.17,11.79 2.06,17.64c0,0.01 1.05,4.79 0.92,4.85c-0.93,0.47 -2.65,-0.25 -2.86,-1.27c-0.14,-0.71 5,-0.12 5.21,-0.09c4.62,0.53 9.5,3.22 13.49,0.6c10.71,-7.03 19.82,-18.7 24.6,-30.59c4.71,-11.71 3.63,-26.15 3.4,-38.49c-0.05,-2.88 -0.24,-5.71 -0.61,-8.57c-0.11,-0.85 -1.16,-2.18 -0.38,-2.55c1.17,-0.56 2.53,0.6 3.8,0.91c0.88,0.21 -1.67,-0.43 -2.45,-0.9c-1.5,-0.92 -2.6,-2.43 -3.02,-4.15c-0.74,-3.07 0.84,-6.33 3.71,-7.65c0.62,-0.28 3.27,-1.2 3.85,-0.53c2.47,2.82 4.99,5.62 7.06,8.75c0.13,0.19 0.75,5.41 0.78,5.68c0.65,5.73 0.65,11.5 0.63,17.26c-0.04,10.83 -0.04,22.28 -3.51,32.67c-2.8,8.41 -7.99,16.01 -13.16,23.11c-5.51,7.57 -14.21,17.36 -23.65,19.99c-4.37,1.22 -8.83,-0.91 -13.07,-1.72c-4.1,-0.78 -9.77,0.29 -13.21,-2.44c-4.18,-3.31 -4.19,-11.4 -4.83,-16.21c-2.16,-16.33 -2.77,-30.68 -0.72,-46.97c0.75,-5.93 -0.4,-14.52 1.89,-20.04c2.26,-5.45 8.31,34.19 10.06,50.72z" fill="rgba(11, 4, 177, 1)"/>
    <path d="M750.02,350.82c0,-14.68 -0.53,-28.94 1.7,-43.48c0.71,-4.62 1.67,-9.26 2.16,-13.9c0.22,-2.11 -0.55,-6.52 0.42,-8.34c1.26,-2.37 2.38,-5.24 4.75,-6.52c8.16,-4.4 9.77,9.03 10.55,13.03c3.4,17.39 8.5,34.42 11.84,51.79c0.7,3.65 1.24,7.34 2.04,10.98c0.19,0.84 1.37,2.12 0.61,2.51c-0.8,0.42 -1.21,-1.41 -2.04,-1.77c-1.43,-0.63 -3,-1.11 -4.56,-1.12c-1.22,-0.01 -2.49,0.38 -3.52,1.04c-0.83,0.53 -0.87,2.68 -1.8,2.35c-0.43,-0.15 1.56,-5.7 1.8,-6.35c2.42,-6.52 6.04,-12.66 9.24,-18.82c7.52,-14.47 10.67,-30.1 16.5,-45.2c2.4,-6.2 5.04,-12.54 13.13,-8.04c3.55,1.97 2.99,5.91 3.27,9.26c0.61,7.29 1.36,14.56 2.11,21.83c2.04,19.88 3.59,39.87 6.61,59.63c0.91,5.96 1.94,11.9 3.28,17.77c0.07,0.31 1.33,5.45 1.27,5.49c-0.86,0.56 -1.93,-0.69 -2.91,-1c-0.95,-0.3 1.84,1 2.47,1.74c3.73,4.33 -0.15,11.18 -5.79,10.2c-6.81,-1.19 -7.29,-16.78 -8.03,-22.22c-3.16,-23.33 -5.51,-46.72 -9.34,-69.96c-1.01,-6.13 -2.05,-12.25 -2.86,-18.41c0,-0.03 -0.95,-7.42 -0.65,-7.58c1.03,-0.56 1.43,1.95 2.47,2.49c1.65,0.86 3.5,1.71 5.36,1.58c1.55,-0.11 2.53,-2.29 4.09,-2.25c0.09,0 -2,4.85 -2.11,5.14c-2.2,5.71 -4.17,11.61 -6.04,17.43c-4.74,14.8 -11.56,28.02 -18.02,42.11c-2.06,4.49 -2.66,14.08 -9.18,14.08c-7.82,0 -8.09,-8 -9.1,-13.75c-2.78,-15.88 -7.09,-31.47 -10.84,-47.14c-1.07,-4.48 -2.05,-8.98 -2.92,-13.5c-0.04,-0.2 -0.99,-4.91 -0.85,-5.01c0.74,-0.5 1.51,1.02 2.37,1.27c1.77,0.51 3.68,1.49 5.45,0.98c1.93,-0.56 2.67,-3.31 4.59,-3.9c0.01,0 -0.35,5.17 -0.37,5.44c-0.49,6.77 -2.02,13.47 -3.19,20.16c-5.16,29.6 0.13,59.79 -2.79,89.52c-0.66,6.7 -11.18,-33.13 -11.18,-49.57z" fill="rgba(11, 4, 177, 1)"/>
    <path d="M841.47,349.34c0.12,-8.63 1.24,-17.55 7.58,-23.98c5.27,-5.34 12.99,-8.25 20.09,-10.21c5.3,-1.47 13.23,-3.51 18.65,-1.59c5.03,1.78 9.14,7.79 5.59,12.84c-3.56,5.05 -10.96,2.02 -15.8,4.58c-11.42,6.04 -15,17.63 -16.34,29.69c-0.61,5.49 -2.06,10.8 3.34,13.99c4.98,2.93 10.79,-7.57 12.74,-11.43c4.27,-8.48 6.82,-18.99 8.34,-28.34c0.8,-4.94 -1.34,-12.71 3.14,-16.42c6.1,-5.04 10.86,2.48 12.86,7.79c6.25,16.64 11.34,33.88 18.97,49.96c2.01,4.24 4.37,8.21 6.95,12.11c1.84,2.77 4.42,5.55 3.69,9.12c-0.93,4.53 -6.33,6.73 -10.16,4.14c-3.72,-2.51 -6.12,-8.39 -8.2,-12.22c-8.2,-15.01 -13.31,-31.79 -19.79,-47.59c-1.64,-3.99 -3.31,-7.96 -4.93,-11.95c-0.39,-0.97 -2.2,-2.99 -1.16,-2.91c1.42,0.11 2.49,4.39 2.99,3.05c2.64,-6.98 -3.44,-13.18 3.28,-13.12c10.21,0.1 6.86,15.89 5.72,21.53c-2.81,13.83 -6.18,29.76 -15.43,40.86c-8.9,10.67 -19.36,13.57 -30.61,4.29c-6.27,-5.17 -6.39,-12.29 -5.91,-19.83c0.87,-13.68 3.86,-30.27 15.36,-39.44c4.61,-3.67 10.94,-7.77 16.88,-8.48c0.3,-0.04 5.55,-0.49 5.52,0.47c-0.04,1.12 -1.93,1.24 -2.56,2.16c-0.67,0.98 -1.01,2.17 -1.19,3.34c-0.26,1.71 2.52,3.31 1.8,4.88c-0.07,0.15 -7.48,0.79 -8.2,0.96c-5.85,1.33 -14.23,3.62 -17.79,8.86c-2.98,4.39 -2.79,10.7 -2.89,15.78c-0.21,10.2 0.37,20.7 -0.63,30.85c-0.65,6.64 -12.03,-22.46 -11.88,-33.78z" fill="rgba(11, 4, 177, 1)"/>
    <path d="M944.55,362.26c-0.42,8.72 -0.8,17.44 -1.05,26.17c-0.19,6.37 -0.33,12.75 -0.26,19.12c0.04,3.72 1.2,8.79 0.08,12.44c-1.6,5.23 -9.25,5.25 -10.89,0.03c-2.62,-8.37 -0.47,-20.18 1.28,-28.42c4.53,-21.33 11.27,-42.17 16.14,-63.44c2.2,-9.6 4.91,-19.91 5.11,-29.81c0.19,-9.08 0.45,-17.96 0.86,-27c0.19,-4.08 -0.45,-6.94 3.72,-9.63c3.57,-2.3 7.62,-0.12 9.67,2.86c1.94,2.83 2.02,7.19 2.72,10.43c1.26,5.89 2.96,11.68 4.67,17.45c8.27,27.89 17.01,55.86 27.63,82.96c2.92,7.47 6.01,14.91 9.51,22.13c0.02,0.04 2.67,4.85 2.58,4.94c-0.77,0.77 -5.7,-0.49 -6.8,0.02c-0.87,0.4 -1.1,2.2 -2.04,2.02c-1.69,-0.33 -1.16,-8.09 -1.15,-8.83c0.18,-10.45 2.53,-20.27 5.34,-30.29c8.02,-28.57 17.04,-57.85 18.02,-87.72c0.22,-6.63 0.14,-13.29 -0.49,-19.9c-0.01,-0.1 -0.83,-5.53 -0.72,-5.58c1.36,-0.63 2.93,0.67 4.38,1.07c0.99,0.27 -1.89,-0.22 -2.84,-0.74c-1.58,-0.86 -2.71,-2.41 -3.04,-4.17c-0.49,-2.58 0.8,-5.26 3.13,-6.48c0.37,-0.19 2.5,-1.11 2.85,-0.69c2.58,3.1 5.32,6.13 7.38,9.6c1.07,1.8 0.48,7.9 0.5,9.93c0.09,6.97 -0.26,13.96 -0.74,20.91c-2.13,30.92 -12.24,60.65 -18.38,90.87c-1.96,9.67 -3.07,19.08 -3.02,28.97c0.02,3.32 0.98,8.76 -2.86,10.63c-4.69,2.28 -8,-0.53 -9.83,-4.47c-4.32,-9.27 -7.4,-19.17 -10.94,-28.75c-10.14,-27.49 -20.24,-54.98 -30.52,-82.42c-2.47,-6.59 -4.81,-13.22 -6.31,-20.11c-0.02,-0.1 -1.01,-4.89 -0.87,-4.94c0.86,-0.32 4.04,2.78 5.13,2.79c2.7,0.01 4.32,-3.47 6.92,-4.22c0.8,-0.23 -0.02,1.66 -0.08,2.48c-0.22,2.85 -0.94,5.61 -1.25,8.44c-0.93,8.48 0.21,16.95 -1.55,25.38c-6.3,30.17 -15.51,59.82 -21.01,90.14c-0.46,2.52 -0.83,4.57 -1.13,7.08c-0.2,1.66 -0.29,3.3 -0.37,4.96c-0.21,4.43 1.06,18.1 -7.86,15.29c-4.43,-1.4 -3.97,-5.75 -3.74,-9.49c0.31,-5.13 0.64,-10.26 1,-15.39c1.25,-17.66 1.25,-35.19 0.78,-52.88c-0.25,-9.4 -1.65,-20.33 0.19,-29.6c1.27,-6.41 10.89,30.75 10.17,45.85z" fill="rgba(11, 4, 177, 1)"/>
  </g>
</svg>